<?xml version="1.0" encoding="utf-8"?>
<!-- Generator: Adobe Illustrator 26.5.1, SVG Export Plug-In . SVG Version: 6.00 Build 0)  -->
<svg version="1.1" id="a" xmlns="http://www.w3.org/2000/svg" xmlns:xlink="http://www.w3.org/1999/xlink" x="0px" y="0px"
	 viewBox="0 0 159 163.4" style="enable-background:new 0 0 159 163.4;" xml:space="preserve">
<g>
	<path d="M97.6,100.7c-0.4,1.2-0.7,2.4-1,3.4c-1.8,0-3.6-0.2-5.3,0.1c-1.4,0.2-2.8,0.7-4,1.4c-5.5,3.1-11,3.2-16.6,0.1
		c-4.1-2.3-8-2-12.3,0c-3.3,1.6-5.4,3.8-6.2,7.3c-1.7,7.4,3.8,14.6,11.5,14.6c10,0.1,20,0,29.9,0c0.4,0,0.9,0,1.4,0
		c0,1.3,0,2.5,0,3.8c-0.3,0-0.6,0.1-0.9,0.1c-10.1,0-20.2,0-30.3,0c-9.1,0-16.1-7.4-15.8-16.4c0.1-4.3,1.9-7.9,4.9-10.9
		c5.9-5.9,11.8-11.8,17.7-17.7c4.6-4.6,9.2-9.3,13.9-13.9c0.6-0.6,0.8-1.1,0.8-1.9c0-10.2,0-20.4,0-30.5c0-0.8-0.1-1.3-1-1.7
		c-2.3-1.2-3.4-3.9-2.8-6.5c0.7-2.6,2.9-4.4,5.6-4.5c4,0,8,0,12,0c2.7,0,4.9,1.9,5.6,4.5c0.6,2.5-0.5,5.2-2.8,6.5
		c-0.7,0.4-0.9,0.8-0.9,1.6c0,10.2,0,20.4,0,30.7c0,0.6,0.3,1.4,0.7,1.8c4.4,4.5,8.9,8.9,13.3,13.4c0.3,0.3,0.6,0.6,1,1
		c-0.9,0.9-1.8,1.8-2.8,2.7c-0.3-0.3-0.6-0.5-0.9-0.8c-4.7-4.7-9.5-9.5-14.2-14.2c-0.8-0.8-1.1-1.6-1.1-2.7c0-10.3,0-20.7,0-31
		c0-0.5,0-1,0-1.5c-2.6,0-5.1,0-7.9,0c0,0.4,0,0.9,0,1.4c0,10.3,0,20.7,0,31c0,1.2-0.4,2.1-1.2,2.9c-8.1,8-16.1,16.1-24.2,24.2
		c-0.3,0.3-0.8,0.6-1.1,0.9c0,0.1,0.1,0.2,0.1,0.3c0.4,0,0.8,0,1.2,0c2.8-0.1,5.5,0.3,7.9,1.8c4.7,2.9,9.4,2.8,14.1,0
		c3.4-2,7.2-2.2,11-1.3C97.2,100.5,97.4,100.6,97.6,100.7z M93.2,31.3c-1.8,0-3.7,0-5.5,0c-1.5,0-2.3,0.8-2.3,2c0,1.2,0.9,2,2.3,2
		c3.7,0,7.4,0,11,0c1.4,0,2.3-0.8,2.3-2c0-1.2-0.9-1.9-2.3-2C96.8,31.3,95,31.3,93.2,31.3z"/>
	<path d="M59.8,51c-2.7,0-5.2,0-7.9,0c0,0.5,0,0.9,0,1.4c0,7.3,0,14.6,0,22c0,2-0.4,2.4-2.3,2.9C39.1,79.8,31.3,89,30.4,99.8
		c0,0.3,0.1,0.9,0.3,1c2.3,1,4.6,2.2,7,2.9c2.5,0.7,5.1,0.2,7.5-1.1c1.4-0.7,2.7-1.4,4.2-2.1c0.4,1.4,0.8,2.6,1.2,3.8
		c-3.2,1.5-6.1,3.4-9.8,3.6c-3.6,0.1-6.9-0.8-10.3-2.9c2.2,11.7,8.8,18.8,19.9,22c-0.3,1.2-0.5,2.4-0.8,3.7
		c-5.1-1.1-9.6-3.4-13.3-6.8c-16.9-15.4-11-42.8,10.7-49.9c0.9-0.3,1.1-0.7,1.1-1.5c0-6.9,0-13.8,0-20.7c0-0.7-0.2-1.1-0.9-1.5
		c-2.4-1.3-3.5-4-2.9-6.6c0.7-2.6,2.9-4.4,5.6-4.4c4,0,7.9,0,11.9,0c2.7,0,5,1.8,5.6,4.4c0.7,2.6-0.4,5.3-2.8,6.6
		c-0.7,0.4-0.9,0.7-0.9,1.5c0,6.9,0,13.9,0,20.8c0,0.9,0.3,1.2,1.1,1.4c2.8,0.8,5.4,2.1,7.9,3.9c-0.7,1.1-1.4,2.1-2,2.9
		c-2.5-1.1-4.9-2.4-7.4-3.2c-3.8-1.1-3.4-1.3-3.5-4.7c0-6.8,0-13.7,0-20.5C59.8,52,59.8,51.5,59.8,51z M56,43.1c-1.9,0-3.8,0-5.6,0
		c-1.5,0-2.3,0.8-2.3,2c0,1.2,0.9,2,2.3,2c3.7,0,7.4,0,11,0c1.4,0,2.3-0.8,2.3-2c0-1.2-0.9-1.9-2.3-2C59.6,43.1,57.8,43.1,56,43.1z"
		/>
	<path d="M96.1,93.8c0.7-1.2,1.4-2.2,2-3.3c2.6,1.5,5.1,3,7.5,4.5c0.9,0.6,1.6,0.6,2.5,0c2.3-1.5,4.7-2.8,7-4.3
		c1.1-0.7,2.1-0.7,3.2,0c2.4,1.5,4.8,2.9,7.2,4.4c0.7,0.5,1.3,0.4,2,0c2.5-1.6,5.1-3.1,7.8-4.7c0.7,1.1,1.3,2.2,2,3.3
		c-2.5,1.5-4.9,3-7.4,4.4c-1.2,0.6-1.6,1.3-1.5,2.7c0.1,2.2,0,4.3,0,6.5c0,1.1-0.4,1.9-1.4,2.4c-2.5,1.5-5,3-7.6,4.5
		c-0.6,0.4-0.9,0.8-0.9,1.5c0.1,1.9,0.1,3.8,0,5.6c0,0.8,0.3,1.2,0.9,1.5c2.6,1.5,5.3,3.1,8,4.8c-0.7,1.1-1.3,2.2-2,3.4
		c-2.6-1.6-5.2-3.1-7.7-4.6c-0.8-0.5-1.4-0.5-2.2,0c-2.4,1.5-4.8,2.9-7.2,4.4c-1,0.6-1.9,0.6-3,0c-2.9-1.8-5.9-3.6-8.8-5.3
		c-1.1-0.6-1.5-1.4-1.5-2.7c0.1-2.9,0-5.7,0-8.6c0-1.1,0.4-1.9,1.4-2.5c2.5-1.5,5-3,7.6-4.5c0.7-0.4,0.9-0.8,0.9-1.6
		c-0.1-1.9-0.1-3.8,0-5.6c0-0.7-0.2-1.1-0.8-1.5C101.5,97.1,98.8,95.4,96.1,93.8z M124.6,102.9c0-1,0.1-2,0-2.9c0-0.4-0.3-1-0.7-1.2
		c-2.1-1.3-4.2-2.6-6.4-3.8c-0.4-0.2-1-0.2-1.4,0c-2.2,1.2-4.4,2.6-6.5,3.9c-0.3,0.2-0.6,0.7-0.6,1.1c-0.1,2-0.1,4,0,6
		c0,0.4,0.3,1,0.7,1.2c2.1,1.3,4.2,2.5,6.3,3.8c0.6,0.4,1.1,0.4,1.7,0c1.2-0.8,2.4-1.7,3.8-2.3C124,107.6,125.4,105.9,124.6,102.9z
		 M114.7,119.1c0-1.5,0.1-2.5,0-3.6c0-0.4-0.3-0.9-0.7-1.1c-2.1-1.3-4.2-2.6-6.4-3.8c-0.4-0.2-1.1-0.2-1.5,0
		c-2.2,1.2-4.3,2.5-6.4,3.8c-0.4,0.2-0.7,0.8-0.7,1.2c-0.1,2-0.1,3.9,0,5.9c0,0.5,0.4,1.1,0.8,1.3c2.1,1.3,4.2,2.6,6.3,3.8
		c0.4,0.2,1.1,0.2,1.5,0c1.3-0.7,2.5-1.7,3.9-2.3C114.1,123.2,115.6,121.6,114.7,119.1z"/>
	<path d="M93.1,90.3c0,1.3,0,2.5,0,3.8c-1.3,0-2.5,0-3.8,0c0-1.2,0-2.5,0-3.8C90.5,90.3,91.8,90.3,93.1,90.3z"/>
	<path d="M144.1,90.3c0,1.3,0,2.5,0,3.8c-1.3,0-2.5,0-3.8,0c0-1.2,0-2.5,0-3.8C141.6,90.3,142.8,90.3,144.1,90.3z"/>
	<path d="M134.3,131.3c-1.3,0-2.5,0-3.8,0c0-1.3,0-2.5,0-3.8c1.3,0,2.5,0,3.8,0C134.3,128.8,134.3,130,134.3,131.3z"/>
	<path d="M142.2,131.3c-1.3,0-2.5,0-3.8,0c0-1.3,0-2.5,0-3.8c1.3,0,2.5,0,3.8,0C142.2,128.8,142.2,130,142.2,131.3z"/>
</g>
</svg>
