<svg xmlns="http://www.w3.org/2000/svg" width="412.913" height="69.12" viewBox="0 0 109.25 18.288">
  <path fill="hsl(180 50% 25%)" d="M.076 17.018c-.076.61.28.99.89.965.939-.05 1.853-.05 2.793 0 .61.026.965-.355.89-.965-.204-1.753-.356-4.547-.356-7.391V7.722c0-2.49.152-4.877.33-6.452.076-.61-.254-.99-.864-.965-.94.05-1.854.05-2.794 0C.355.279.025.66.102 1.27c.177 1.575.33 3.962.33 6.452v1.905c0 2.844-.153 5.638-.356 7.391" style="white-space:pre"/>
  <path fill="hsl(180 50% 25%)" d="M16.84 4.8c.152.051.28.102.381.102.33 0 .483-.228.483-.686 0-.736.025-1.524.127-2.21.076-.66-.229-1.193-.788-1.346C15.697.28 13.563 0 12.116 0 7.06 0 5.334 3.505 6.324 6.502c.94 2.845 3.912 3.861 5.792 4.75 1.092.508 1.854.99 1.854 1.677 0 .508-.407 1.422-2.388 1.422-1.27 0-2.82-.356-4.09-.864-.152-.05-.279-.101-.38-.101-.33 0-.483.228-.483.686 0 .736-.025 1.524-.127 2.21-.076.66.229 1.193.788 1.346 1.346.38 3.48.66 4.927.66 5.055 0 6.807-3.48 5.791-6.553-.863-2.591-3.25-3.53-5.08-4.344-1.422-.635-2.565-1.219-2.565-2.057 0-.483.406-1.397 2.388-1.397 1.27 0 2.819.356 4.089.864" style="white-space:pre"/>
  <path fill="hsl(180 50% 25%)" d="M19.685 17.018c-.076.61.28 1.016.889.99 1.499-.05 2.997-.05 4.445-.05s2.87 0 4.191.05c.61.026.99-.38.965-.99s-.025-1.22 0-1.829-.355-.965-.965-.889a38 38 0 0 1-4.166.254c-.61 0-1.041-.406-1.066-1.016-.051-1.219-.077-2.54-.077-3.911V7.722c0-2.49.153-4.877.33-6.452.077-.61-.253-.99-.863-.965-.94.05-1.854.05-2.794 0-.61-.026-.94.355-.864.965.178 1.575.33 3.962.33 6.452v1.905c0 2.844-.152 5.638-.355 7.391" style="white-space:pre"/>
  <path fill="hsl(180 50% 25%)" d="M38.278 5.436c.102-.305.203-.432.33-.432s.254.127.33.432c.407 1.32.864 3.15 1.245 5.156.102.61-.229 1.092-.838 1.117h-1.473c-.61-.025-.94-.482-.839-1.092.381-2.006.839-3.86 1.245-5.181m-6.782 11.608c-.152.584.153.965.762.94 1.042-.051 2.134-.051 3.175 0 .61.025.99-.356.965-.966v-.914c.051-1.169 1.042-1.169 1.905-1.169h.66c.864 0 1.804.051 1.855 1.194v.89c0 .609.356.99.965.964 1.042-.05 2.134-.05 3.175 0 .61.026.915-.355.762-.94-1.346-5.257-2.895-12.166-3.353-15.772C42.291.66 41.86.28 41.25.305c-.864.026-1.829.051-2.642.051S36.83.331 35.967.306c-.61-.026-1.042.355-1.118.965-.457 3.606-2.007 10.516-3.353 15.773" style="white-space:pre"/>
  <path fill="hsl(180 50% 25%)" d="M64.643 4.8c.152.051.28.102.381.102.33 0 .483-.228.483-.686 0-.736.025-1.524.127-2.21.076-.66-.229-1.193-.788-1.346C63.5.28 61.366 0 59.92 0c-5.055 0-6.782 3.505-5.792 6.502.94 2.845 3.912 3.861 5.792 4.75 1.092.508 1.854.99 1.854 1.677 0 .508-.407 1.422-2.388 1.422-1.27 0-2.82-.356-4.09-.864-.152-.05-.279-.101-.38-.101-.33 0-.483.228-.483.686 0 .736-.025 1.524-.127 2.21-.076.66.229 1.193.788 1.346 1.346.38 3.48.66 4.927.66 5.055 0 6.807-3.48 5.791-6.553-.863-2.591-3.25-3.53-5.08-4.344-1.422-.635-2.565-1.219-2.565-2.057 0-.483.406-1.397 2.388-1.397 1.27 0 2.819.356 4.089.864" style="white-space:pre"/>
  <path fill="hsl(180 50% 25%)" d="M72.034 1.27c.076-.61-.254-.99-.864-.965-.94.05-1.854.05-2.794 0-.61-.026-.94.355-.863.965.178 1.575.33 3.962.33 6.452v3.81c0 4.546 2.464 6.756 6.172 6.756s6.172-2.21 6.172-6.756v-3.81c0-2.49.153-4.877.33-6.452.077-.61-.253-.99-.863-.965-.94.05-1.854.05-2.794 0-.61-.026-.94.355-.864.965.178 1.575.33 3.962.33 6.452v3.632c0 1.752-.863 2.997-2.31 2.997s-2.312-1.245-2.312-2.997V7.722c0-2.49.152-4.877.33-6.452" style="white-space:pre"/>
  <path fill="hsl(180 50% 25%)" d="M86.411 13.868c-.152-2.769-.152-6.63 0-9.398.025-.61.483-.99 1.092-.99h.356c1.727 0 3.073 1.854 3.073 5.689s-1.346 5.69-3.073 5.69h-.356c-.61 0-1.067-.381-1.092-.991M82.093 1.27c.178 1.575.33 3.962.33 6.452v2.844c0 2.49-.152 4.877-.33 6.452-.076.61.254.99.864.99 1.854 0 3.098.28 4.292.28 4.775 0 7.747-2.21 7.747-9.144S92.024 0 87.25 0c-1.194 0-2.438.28-4.292.28-.61 0-.94.38-.864.99" style="white-space:pre"/>
  <path fill="hsl(180 50% 25%)" d="M107.06 4.8c.152.051.28.102.381.102.33 0 .483-.228.483-.686 0-.736.025-1.524.127-2.21.076-.66-.229-1.193-.788-1.346-1.346-.38-3.48-.66-4.927-.66-5.055 0-6.782 3.505-5.792 6.502.94 2.845 3.912 3.861 5.792 4.75 1.092.508 1.854.99 1.854 1.677 0 .508-.407 1.422-2.388 1.422-1.27 0-2.82-.356-4.09-.864-.152-.05-.279-.101-.38-.101-.33 0-.483.228-.483.686 0 .736-.025 1.524-.127 2.21-.076.66.229 1.193.788 1.346 1.346.38 3.48.66 4.927.66 5.055 0 6.807-3.48 5.791-6.553-.863-2.591-3.25-3.53-5.08-4.344-1.422-.635-2.565-1.219-2.565-2.057 0-.483.406-1.397 2.388-1.397 1.27 0 2.819.356 4.089.864" style="white-space:pre"/>
</svg>
