<svg xmlns="http://www.w3.org/2000/svg" width="205.279" height="78.51" viewBox="78.052 138.113 54.313 20.772"><path fill="none" stroke="#000" stroke-width=".661" d="M112.518 149.82c-.818-.415-1.13-1.585-.603-2.344a1.64 1.64 0 0 1 1.582-.757c.63.067 1.198.54 1.352 1.159.172.613-.007 1.326-.501 1.74-.485.43-1.23.51-1.803.215z"/><path fill="none" stroke="#000" stroke-width=".609" d="M109.753 145.392c-.56-.262-.935-.85-1.005-1.455-.037-.45.159-.904.462-1.23.56-.603 1.583-.657 2.214-.136.605.483.728 1.406.384 2.077-.29.59-.97.966-1.625.866a1.6 1.6 0 0 1-.43-.122z"/><path fill="none" stroke="#000" stroke-width=".536" d="M112.658 140.633c-.395-.185-.66-.6-.71-1.029-.026-.319.112-.639.327-.87.396-.426 1.119-.464 1.565-.096.428.342.515.994.272 1.47-.206.416-.686.682-1.15.611a1.2 1.2 0 0 1-.304-.086z"/><path d="M116.272 147.598c-.833-.312-1.543-1.026-1.71-1.917-.245-1.21.54-2.549 1.743-2.87 1.098-.325 2.405.175 2.934 1.207a2.5 2.5 0 0 1-.15 2.552c-.526.798-1.525 1.327-2.487 1.127a2 2 0 0 1-.33-.099m1.574-.846c.627-.312.99-1.037.906-1.726-.058-.695-.559-1.342-1.243-1.517a1.74 1.74 0 0 0-1.828.577c-.457.54-.542 1.37-.165 1.977.347.615 1.078 1.008 1.784.875.19-.031.375-.096.546-.186m-39.118 11.902c-.382-.104-.577-.468-.581-.845-.108-1.363-.062-2.733-.084-4.1.004-1.446-.042-2.894.029-4.34-.006-.516.341-1.024.861-1.13.568-.166 1.285.223 1.295.852.122 1.68.1 3.368.097 5.051-.02 1.285-.012 2.573-.136 3.853-.076.591-.78.95-1.32.728a1 1 0 0 1-.16-.07m5.031.137c-.819-.098-1.697-.359-2.236-1.02-.287-.337-.303-.867 0-1.199.207-.317.62-.41.965-.293.736.19 1.424.697 2.214.591.281-.047.698-.308.503-.636-.38-.46-1.009-.56-1.528-.793-.816-.35-1.689-.801-2.103-1.63-.329-.666-.047-1.44.395-1.98.594-.815 1.66-1.093 2.623-1.087.791.02 1.659.188 2.23.78.352.368.429 1.052.039 1.419-.426.301-.983.114-1.428-.046-.485-.185-1.04-.373-1.551-.185-.325.117-.33.616-.026.763.554.31 1.179.466 1.752.738.626.29 1.354.608 1.635 1.29.302.867.111 1.932-.601 2.548-.776.692-1.883.848-2.883.74m5.147-.154c-.36-.137-.455-.532-.472-.878-.1-1.588-.046-3.181-.06-4.771.013-1.544-.03-3.09.06-4.631.023-.726.98-1.168 1.557-.733.408.246.452.739.457 1.167.098 2.544.073 5.09.01 7.635-.035.614-.01 1.24-.134 1.844-.271.49-.944.682-1.418.367m5.593.167c-1.227-.157-2.232-1.103-2.661-2.234-.618-1.559-.444-3.509.713-4.777a3.17 3.17 0 0 1 2.59-1.024c.632.042 1.313.195 1.76.673.326-.11.493-.52.86-.587.373-.12.838.029 1.041.366.207.817.202 1.67.252 2.507.036 1.416.078 2.84-.081 4.25 0 .476-.456.82-.909.807a1.08 1.08 0 0 1-1.015-.656c-.264-.259-.498.4-.814.423a3 3 0 0 1-1.736.252m1.298-2.038c.75-.32 1.077-1.186 1.1-1.952.04-.845-.398-1.79-1.254-2.05-.642-.22-1.372.131-1.669.727-.548.974-.43 2.38.483 3.095.377.293.9.358 1.34.18m8.473 2.035c-.796-.15-1.687-.376-2.193-1.064-.422-.574-.048-1.618.716-1.619.8.013 1.504.492 2.303.535.588.067 1.376-.013 1.617-.649.17-.457-.013-1.022-.485-1.208-1.19-.6-2.628-.723-3.647-1.642-.684-.66-.768-1.728-.532-2.604.399-1.394 1.8-2.299 3.198-2.42 1.008-.089 2.084.128 2.9.746.382.286.632.88.28 1.289-.49.542-1.328.454-1.961.259-.627-.165-1.446-.314-1.936.228-.28.26-.34.748.004.984.942.729 2.232.705 3.208 1.38.987.592 1.647 1.76 1.458 2.922-.197 1.454-1.481 2.564-2.88 2.837a5.4 5.4 0 0 1-2.05.025zm8.584.003c-.93-.121-1.852-.59-2.347-1.412-.251-.345-.337-.766-.363-1.184a29 29 0 0 1-.063-4.232c-.003-.416.15-.875.572-1.037.51-.254 1.31-.03 1.415.585.114 1.055.078 2.12.115 3.18.035.537-.024 1.104.187 1.61.238.384.692.614 1.144.575.507-.002 1.12-.27 1.188-.833.175-1.225.004-2.47.164-3.698.082-.543.146-1.162.567-1.558.385-.298.858.021 1.154.292.213.356.199.8.253 1.202.099 1.418.11 2.85-.06 4.262-.042.727-.552 1.328-1.134 1.717-.814.537-1.84.677-2.792.53m8.018-.012c-1.338-.159-2.39-1.26-2.782-2.505-.577-1.688-.127-3.774 1.325-4.882.955-.688 2.342-.936 3.389-.31.24.272.522.31.444-.147.036-.916-.05-1.843.095-2.752.16-.665 1.048-.978 1.577-.536.43.288.386.833.408 1.286q.122 4.224-.007 8.449c-.012.437.006.977-.445 1.215-.515.343-1.327.147-1.524-.471-.34.051-.64.503-1.05.556-.46.147-.955.161-1.43.097m1.337-2.073c.808-.449 1.132-1.489 1.003-2.365-.09-.78-.638-1.615-1.487-1.659-.86-.061-1.541.726-1.655 1.527-.173.916.072 2.048.961 2.51a1.34 1.34 0 0 0 1.178-.013m6.498 2.087c-.818-.135-1.693-.42-2.221-1.098-.256-.313-.266-.802.028-1.095.207-.295.58-.47.937-.36.676.164 1.261.632 1.978.641.318.032.78-.102.768-.495-.026-.408-.486-.553-.8-.691-.801-.273-1.633-.555-2.263-1.144-.553-.48-.886-1.275-.62-1.991.3-.85 1.077-1.479 1.948-1.672.99-.232 2.09-.169 2.99.33.443.241.814.742.66 1.265a.74.74 0 0 1-.788.615c-.762-.006-1.422-.591-2.196-.46-.373.042-.741.6-.286.81.706.43 1.555.572 2.228 1.066.772.51 1.4 1.402 1.28 2.364-.1.922-.899 1.618-1.763 1.837-.61.17-1.257.171-1.88.078"/></svg>