<svg xmlns="http://www.w3.org/2000/svg" width="155.991" height="112.557" viewBox="0 0 155.991 112.557"><path d="M8.09 52.709c-2.037-.178-2.554-2.494-2.138-4.163.508-2.817 1.495-5.535 1.772-8.4 1.026-8.288.986-16.727-.179-24.998-.296-2.723-1.354-5.292-1.675-8.005-.41-2.071 1.848-2.905 3.516-2.885 3.16-.158 6.356-.27 9.503.122 2.246.004 2.804 2.448 2.118 4.189-.783 2.944-1.688 5.872-1.949 8.925-.843 8.038-.745 16.206.512 24.195.332 2.892 1.771 5.571 1.804 8.5-.012 2.079-2.399 2.53-4.044 2.61-3.075.168-6.168.097-9.24-.09M37.873 53.255c-4.168-.498-8.748-1.777-11.361-5.312-1.596-2.16-1.876-5.731.47-7.482 2.703-2.096 7.133-.994 8.53 2.14 1.487 3.153 5.61 5.144 8.89 3.602 2.188-.999 2.804-4.578.628-5.916-3.737-2.352-8.25-3-12.083-5.177-3.233-1.706-6.597-4.357-7.016-8.245-.324-4.209 2.26-8.366 6.022-10.201 5.169-2.612 11.361-2.956 16.905-1.424 3.025.881 6.36 2.774 7.021 6.122.585 2.403-.866 5.182-3.405 5.638-2.66.654-5.447-.97-6.596-3.377-1.715-2.719-6.118-3.907-8.483-1.386-1.403 1.442-.956 3.934.903 4.735 5.093 2.914 11.461 3.196 16.041 7.079 2.797 2.457 3.215 6.6 2.63 10.062-.814 4.373-4.727 7.427-8.855 8.503-3.32.94-6.83 1.01-10.24.64M63.24 52.481c-2.239-.364-2.407-3.095-1.759-4.826 1.52-4.97 1.547-10.21 1.758-15.357.109-6.91.258-13.868-.65-20.735-.419-2.46-1.548-5.009-.79-7.508 1.087-2.201 3.866-2.484 5.946-3.24 1.829-.398 4.111-1.518 5.78-.169 1.31 1.903.807 4.394.803 6.567-.431 5.356-.93 10.715-.839 16.096.084 7.33.26 14.711 1.55 21.944.336 2.046 1.819 4.313.526 6.3-1.401 1.537-3.734 1.055-5.601 1.284-2.237.014-4.53.141-6.724-.356M87.984 52.81c-3.91-1.005-7.313-4.21-7.885-8.307-.684-4.174.495-9.014 4.204-11.446 4.71-3.125 10.561-3.246 16.011-3.517 2.157.327 3.602-1.6 2.55-3.545-.389-2.394-2.118-4.684-4.648-5.006-2.815-.549-5.596 1.485-6.264 4.2-1.774 3.812-8.33 3.874-10.036-.02-1.07-2.9.62-6.066 3.085-7.65 4.644-3.08 10.55-3.732 15.973-2.996 4.36.628 9.114 2.73 10.824 7.093 1.656 4.312 1.488 9.03 1.778 13.569.242 2.963-.004 6.109 1.231 8.882.973 1.541 2.729 2.807 2.64 4.832-.08 2.952-3.357 4.444-5.958 4.258-2.935-.088-6.053-1.683-7.163-4.511-1.09-.22-2.486 2.13-3.865 2.58-3.745 2.043-8.343 2.69-12.477 1.583m11.043-7.516c2.635-1.025 3.929-3.89 3.962-6.576.703-2.411-1.894-3.729-3.933-3.568-3.145-.022-6.866 1.127-8.208 4.245-1.24 2.65.79 5.738 3.488 6.346 1.551.436 3.238.222 4.69-.447M13.757 112.077c-4.991-.74-10.356-2.964-12.863-7.612-1.67-3.041-1.076-7.745 2.435-9.198 3.235-1.452 6.983.721 8.26 3.812 2.01 4.466 7.964 7.182 12.446 4.766 3.13-1.722 3.48-6.946.29-8.801-4.45-2.817-9.84-3.585-14.372-6.261C5.7 86.49 1.452 82.815 1.002 77.697c-.375-4.9 2.233-9.924 6.6-12.253 6.094-3.366 13.596-3.787 20.219-1.868 3.836 1.141 7.95 3.766 8.561 8.049.588 2.974-1.152 6.545-4.404 6.9-3.159.5-5.887-1.96-6.908-4.762-2.01-3.983-8.018-5.737-11.458-2.582-2.166 2.101-2.007 6.317.835 7.779 5.459 3.19 12.007 4.005 17.284 7.585 3.375 2.037 5.76 5.655 5.94 9.633.624 4.978-1.53 10.275-5.847 12.978-5.288 3.461-11.986 3.765-18.067 2.92M55.504 112.108c-3.807-.547-7.795-2.24-9.708-5.777-2.6-4.805-2.716-10.428-3.004-15.754-.17-3.638-.438-7.276-1.049-10.868-.274-1.86.093-4.26 2.122-4.963 2.416-.844 5.068-.786 7.583-.537 2.11.165 2.66 2.505 2.552 4.256-.147 6.445-1.706 12.952-.341 19.367.47 2.539 2.144 5.213 4.913 5.556 2.357.518 4.969-.55 6.066-2.75 2.033-3.931 1.818-8.537 1.578-12.83-.148-3.424-1.077-6.778-1.046-10.208-.148-2.104 1.935-3.247 3.783-3.275 2.413-.168 4.999-.614 7.3.343 1.912 1.026 1.45 3.536 1.304 5.318-.537 5.68-.813 11.38-1.277 17.062-.567 4.988-2.428 10.352-6.848 13.187-4.095 2.65-9.28 2.647-13.928 1.873M94.547 112.096c-6.557-1.279-10.954-7.435-12.179-13.703-1.244-6.198-.227-13.013 3.358-18.284 4.002-5.777 12.32-8.469 18.69-5.092 1.499 1.522 4 2.03 3.402-.943.017-3.358-1.55-6.532-1.367-9.884.374-2.862 3.701-3.579 6.012-4.219 2.029-.387 4.738-1.49 6.336.357 1.238 2.616.218 5.61.098 8.36-.97 10.556-1.41 21.259.044 31.791.213 2.77 1.601 5.303 1.72 8.07.151 2.218-2.098 3.528-4.073 3.509-2.412.06-5.687.233-6.978-2.278-.3-1.433-1.305-2.689-2.36-.89-3.324 3.143-8.307 4.075-12.703 3.206m9.277-9.02c3.418-2.187 4.114-6.71 4.1-10.46-.155-3.654-.97-7.906-4.17-10.135-2.817-1.783-6.58-.447-8.373 2.163-3.232 4.389-3.623 10.741-1.047 15.522 1.857 3.155 6.178 4.865 9.49 2.91M135.657 112.16c-4.08-.611-8.475-2.393-10.582-6.158-1.27-2.155-.795-5.315 1.484-6.59 2.785-1.768 6.968-.653 8.28 2.447 1.274 2.454 4.116 4.306 6.928 3.506 1.581-.493 3.864-1.399 3.832-3.37-.543-2.052-2.751-2.981-4.47-3.883-4.159-1.79-8.672-2.993-12.292-5.836-2.514-1.814-4.35-4.89-3.781-8.067.46-3.46 2.614-6.604 5.718-8.216 5.14-2.753 11.407-3.144 16.973-1.553 3.206.939 6.64 3.126 7.154 6.699.535 2.329-1.24 4.689-3.575 5.016-2.494.567-5.246-.722-6.332-3.057-1.616-2.54-5.46-4.013-8.048-2.06-1.648 1.393-1.488 4.485.588 5.399 4.915 2.505 10.78 2.903 15.274 6.292 2.522 1.822 3.268 5.093 3.176 8.042.14 4.059-2.293 7.968-5.94 9.724-4.404 2.251-9.59 2.318-14.387 1.666"/></svg>