<?xml version="1.0" encoding="utf-8"?>
<!-- Generator: Adobe Illustrator 26.5.1, SVG Export Plug-In . SVG Version: 6.00 Build 0)  -->
<svg version="1.1" id="a" xmlns="http://www.w3.org/2000/svg" xmlns:xlink="http://www.w3.org/1999/xlink" x="0px" y="0px"
	 viewBox="0 0 159 163.4" style="enable-background:new 0 0 159 163.4;" xml:space="preserve">
<g>
	<path d="M39.8,94.6c0-5.4,1-10.7,2.7-15.8C45.3,69.9,49.7,62,55,54.4c6-8.6,12.9-16.4,20.6-23.5c1.5-1.4,3-1.8,4.8-0.1
		c5.8,5.4,11.3,11,16.2,17.3c1.8,2.3,3.6,4.7,5.3,7.1c0.9,1.2,0.8,2.5-0.2,3.6c-1.3,1.5-3.4,1.5-4.7-0.2c-1.1-1.4-2.1-2.9-3.1-4.3
		c-4.6-6-9.5-11.7-15.1-16.9c-0.5-0.5-0.9-0.7-1.5,0c-5.8,5.7-11.2,11.7-16,18.3c-4.9,6.7-9.1,13.7-12.1,21.5
		c-2.6,6.9-4.2,14.1-3.3,21.6c0.7,5.6,2.6,10.7,5.9,15.3c3.7,5.3,8.6,9.1,14.6,11.4c5.3,2.1,10.8,2.7,16.4,1.8
		c7.1-1,13.2-4.2,18.2-9.2c3.7-3.7,6.3-8,7.9-13c2.2-7,2-13.9,0.3-20.9c-0.4-1.7,0.6-3.3,2.5-3.8c1.3-0.3,3,0.9,3.3,2.3
		c1.4,5.6,1.9,11.4,1.2,17.1c-1.1,8.7-4.8,16.2-11,22.4c-4.5,4.5-9.7,7.7-15.7,9.6c-5.3,1.7-10.8,2.1-16.3,1.4
		c-7-0.9-13.2-3.6-18.7-7.9c-6.1-4.8-10.3-10.9-12.8-18.2C40.5,103.6,39.8,99.2,39.8,94.6z"/>
	<path d="M119.2,62.1c-0.4,0.7-0.6,1.5-1.1,2c-3.2,3.3-6.5,6.5-9.8,9.8c-8.7,8.7-17.3,17.4-26,26c-1.7,1.7-3.2,1.7-4.8,0
		c-5.7-5.7-11.3-11.3-17-17c-0.9-0.9-1.3-1.9-0.8-3.1c0.5-1.2,1.4-1.9,2.7-2.1c1-0.1,1.7,0.4,2.4,1.1c4,4,8.1,8,12.1,12
		c0.8,0.8,1.7,1.6,2.5,2.5c0.4,0.5,0.7,0.4,1.2,0c5.8-5.8,11.7-11.7,17.5-17.5c5.1-5.1,10.2-10.2,15.3-15.3c0.6-0.6,1.4-1.3,2.2-1.5
		c1.7-0.5,3.8,1.2,3.6,2.9C119.1,62,119.1,62.1,119.2,62.1z"/>
</g>
</svg>
